<svg viewBox="0 0 480 480" xmlns="http://www.w3.org/2000/svg" xmlns:xlink="http://www.w3.org/1999/xlink" id="Capa_1" overflow="hidden"><g><g><path d="M80 48 16 48C7.168 48 0 55.168 0 64L0 128C0 136.832 7.168 144 16 144 24.832 144 32 136.832 32 128L32 80 80 80C88.832 80 96 72.832 96 64 96 55.168 88.832 48 80 48Z" stroke="none" stroke-width="1" stroke-linecap="butt" fill="#FFFFFF" fill-opacity="1"/></g></g><g><g><path d="M464 336C455.168 336 448 343.168 448 352L448 400 400 400C391.168 400 384 407.168 384 416 384 424.832 391.168 432 400 432L464 432C472.832 432 480 424.832 480 416L480 352C480 343.168 472.832 336 464 336Z" stroke="none" stroke-width="1" stroke-linecap="butt" fill="#FFFFFF" fill-opacity="1"/></g></g><g><g><path d="M464 48 400 48C391.168 48 384 55.168 384 64 384 72.832 391.168 80 400 80L448 80 448 128C448 136.832 455.168 144 464 144 472.832 144 480 136.832 480 128L480 64C480 55.168 472.832 48 464 48Z" stroke="none" stroke-width="1" stroke-linecap="butt" fill="#FFFFFF" fill-opacity="1"/></g></g><g><g><path d="M80 400 32 400 32 352C32 343.168 24.832 336 16 336 7.168 336 0 343.168 0 352L0 416C0 424.832 7.168 432 16 432L80 432C88.832 432 96 424.832 96 416 96 407.168 88.832 400 80 400Z" stroke="none" stroke-width="1" stroke-linecap="butt" fill="#FFFFFF" fill-opacity="1"/></g></g><g><g><rect x="64" y="112" width="32" height="256" stroke="none" stroke-width="1" stroke-linecap="butt" fill="#FFFFFF" fill-opacity="1"/></g></g><g><g><rect x="128" y="112" width="32" height="192" stroke="none" stroke-width="1" stroke-linecap="butt" fill="#FFFFFF" fill-opacity="1"/></g></g><g><g><rect x="192" y="112" width="32" height="192" stroke="none" stroke-width="1" stroke-linecap="butt" fill="#FFFFFF" fill-opacity="1"/></g></g><g><g><rect x="256" y="112" width="32" height="256" stroke="none" stroke-width="1" stroke-linecap="butt" fill="#FFFFFF" fill-opacity="1"/></g></g><g><g><rect x="320" y="112" width="32" height="192" stroke="none" stroke-width="1" stroke-linecap="butt" fill="#FFFFFF" fill-opacity="1"/></g></g><g><g><rect x="384" y="112" width="32" height="256" stroke="none" stroke-width="1" stroke-linecap="butt" fill="#FFFFFF" fill-opacity="1"/></g></g><g><g><rect x="128" y="336" width="32" height="32" stroke="none" stroke-width="1" stroke-linecap="butt" fill="#FFFFFF" fill-opacity="1"/></g></g><g><g><rect x="192" y="336" width="32" height="32" stroke="none" stroke-width="1" stroke-linecap="butt" fill="#FFFFFF" fill-opacity="1"/></g></g><g><g><rect x="320" y="336" width="32" height="32" stroke="none" stroke-width="1" stroke-linecap="butt" fill="#FFFFFF" fill-opacity="1"/></g></g><g></g><g></g><g></g><g></g><g></g><g></g><g></g><g></g><g></g><g></g><g></g><g></g><g></g><g></g><g></g></svg>