<svg viewBox="0 0 512 512" xmlns="http://www.w3.org/2000/svg" xmlns:xlink="http://www.w3.org/1999/xlink" id="Capa_1" overflow="hidden"><g><g><path d="M310 190C304.48 190 300 194.48 300 200 300 205.52 304.48 210 310 210 315.52 210 320 205.52 320 200 320 194.48 315.52 190 310 190Z" stroke="none" stroke-width="1" stroke-linecap="butt" fill="#FFFFFF" fill-opacity="1"/></g></g><g><g><path d="M500.281 443.719 366.801 310.239C388.546 277.485 400 239.555 400 200 400 89.72 310.28 0 200 0 89.72 0 0 89.72 0 200 0 310.28 89.72 400 200 400 239.556 400 277.486 388.545 310.239 366.802L347.134 403.697C347.139 403.702 347.144 403.707 347.15 403.713L443.718 500.281C451.276 507.838 461.319 512 472 512 482.681 512 492.724 507.838 500.278 500.284 507.837 492.731 512 482.687 512 472 512 461.313 507.837 451.269 500.281 443.719ZM305.536 345.727C305.536 345.728 305.535 345.728 305.534 345.729 274.667 368.149 238.175 380 200 380 100.748 380 20 299.252 20 200 20 100.748 100.748 20 200 20 299.252 20 380 100.748 380 200 380 238.175 368.149 274.667 345.728 305.535 334.511 320.988 320.989 334.511 305.536 345.727ZM326.516 354.793C336.866 346.326 346.327 336.865 354.793 326.516L383.164 354.887C374.536 365.07 365.07 374.537 354.887 383.164L326.516 354.793ZM486.139 486.139C482.359 489.919 477.338 492 472 492 466.662 492 461.641 489.919 457.861 486.139L369.066 397.344C379.193 388.653 388.653 379.194 397.343 369.067L486.141 457.865C489.919 461.639 492 466.658 492 472 492 477.342 489.919 482.361 486.139 486.139Z" stroke="none" stroke-width="1" stroke-linecap="butt" fill="#FFFFFF" fill-opacity="1"/></g></g><g><g><path d="M200 40C111.775 40 40 111.775 40 200 40 288.225 111.775 360 200 360 288.225 360 360 288.225 360 200 360 111.775 288.225 40 200 40ZM200 340C122.804 340 60 277.196 60 200 60 122.804 122.804 60 200 60 277.196 60 340 122.804 340 200 340 277.196 277.196 340 200 340Z" stroke="none" stroke-width="1" stroke-linecap="butt" fill="#FFFFFF" fill-opacity="1"/></g></g><g><g><path d="M312.065 157.073C303.454 134.661 288.461 115.499 268.705 101.66 248.479 87.49 224.721 80 200 80 194.478 80 190 84.478 190 90 190 95.522 194.478 100 200 100 241.099 100 278.631 125.818 293.396 164.247 294.924 168.223 298.713 170.663 302.733 170.663 303.925 170.663 305.138 170.448 306.317 169.995 311.472 168.014 314.046 162.229 312.065 157.073Z" stroke="none" stroke-width="1" stroke-linecap="butt" fill="#FFFFFF" fill-opacity="1"/></g></g><g></g><g></g><g></g><g></g><g></g><g></g><g></g><g></g><g></g><g></g><g></g><g></g><g></g><g></g><g></g></svg>