<?xml version="1.0" encoding="utf-8"?>
<!-- Generator: Adobe Illustrator 23.0.3, SVG Export Plug-In . SVG Version: 6.00 Build 0)  -->
<svg version="1.1" id="Ebene_1" xmlns="http://www.w3.org/2000/svg" xmlns:xlink="http://www.w3.org/1999/xlink" x="0px" y="0px"
	 viewBox="0 0 1366 768" style="enable-background:new 0 0 1366 768;" xml:space="preserve">
<style type="text/css">
	.st0{fill:#FFFFFF;}
	.st1{font-family:'CenturyGothic';}
	.st2{font-size:39.0451px;}
	.st3{font-size:37.2552px;}
	.st4{font-size:28.7462px;}
	.st5{fill:#B1C6BB;}
	.st6{font-size:38.7365px;}
	.st7{font-size:72.8146px;}
</style>
<g>
	<text transform="matrix(1.0588 0 0 1 638.5601 320.54)" class="st0 st1 st2">e</text>
	<text transform="matrix(1.3367 0 0 1 606.4351 320.0459)" class="st0 st1 st3">v</text>
	<text transform="matrix(1.6808 0 0 1 571.9995 320.4805)" class="st0 st1 st4">Y</text>
	<rect x="593.26" y="294.56" class="st5" width="202.74" height="187.44"/>
	<text transform="matrix(1.4348 0 0 1 617.5503 459.5244)" class="st0 st1 st6">s</text>
	<text transform="matrix(1.326 0 0 1 643.3613 459.5254)" class="st0 st1 st6">v</text>
	<text transform="matrix(1.0588 0 0 1 743.2031 459.6094)" class="st0 st1 st2">e</text>
	<text transform="matrix(1.3367 0 0 1 711.0771 459.1152)" class="st0 st1 st3">v</text>
	<text transform="matrix(1.6808 0 0 1 676.6421 459.5498)" class="st0 st1 st4">Y</text>
	<text transform="matrix(1.2013 0 0 1 664.9102 406.7656)" class="st0 st1 st7">Y</text>
	<g>
		<path class="st0" d="M659.25,354.73c-0.47,2.03,0.78,5,3.29,7.39c2.77,2.64,6.16,3.69,8.1,2.67c-1.78-1.73-3.49-3.55-5.29-5.27
			c-0.11-0.1-0.16-0.23-0.18-0.36C662.86,358.1,661.21,356.24,659.25,354.73z"/>
		<path class="st0" d="M659.14,354.67c2,1.51,3.63,3.45,6.02,4.47c0.23,0.1,0.33,0.29,0.34,0.51c1.73,1.65,3.37,3.39,5.08,5.06
			c0.48-2.03-0.77-5.01-3.29-7.4C664.5,354.66,661.08,353.61,659.14,354.67z"/>
	</g>
	<g>
		<path class="st0" d="M696.9,363.46c-2.2-0.8-3.88-2.02-6.63-2.37c-0.27-0.03-0.36-0.16-0.33-0.33c-1.85-0.97-3.58-2.02-5.4-3.01
			c-0.9,1.67,0.15,3.76,2.84,5.16C690.37,364.46,694.37,364.64,696.9,363.46z"/>
		<g>
			<path class="st0" d="M696.41,363.77c0.89-1.67-0.16-3.75-2.85-5.15c-2.96-1.54-6.92-1.74-9.46-0.58c1.9,1.02,3.7,2.12,5.62,3.12
				c0.11,0.06,0.16,0.15,0.16,0.25C692.54,361.82,694.27,362.96,696.41,363.77z"/>
		</g>
	</g>
	<polygon class="st0" points="669.52,363.29 678.87,365.68 678.4,367.06 669.05,364.67 	"/>
	<g>
		<path class="st0" d="M731.88,341.36c-2.05,1.63-4.54,2.72-6.1,4.92c-0.15,0.21-0.38,0.26-0.64,0.19
			c-2.17,1.29-4.43,2.46-6.62,3.72c2.24,1.19,5.86,0.86,9.01-1.02C731.03,347.08,732.79,343.78,731.88,341.36z"/>
		<g>
			<path class="st0" d="M732.2,341.84c-2.25-1.18-5.85-0.85-8.99,1.03c-3.47,2.07-5.22,5.34-4.37,7.76
				c2.27-1.32,4.63-2.53,6.89-3.88c0.13-0.08,0.29-0.1,0.44-0.07C727.75,344.57,730.15,343.42,732.2,341.84z"/>
		</g>
	</g>
	<g>
		<path class="st0" d="M722.58,364.3c-2.49,0.89-5.23,1.14-7.45,2.74c-0.21,0.15-0.45,0.12-0.67-0.02c-2.5,0.54-5.04,0.94-7.54,1.44
			c1.73,1.83,5.27,2.64,8.9,1.85C719.84,369.43,722.62,366.87,722.58,364.3z"/>
		<g>
			<path class="st0" d="M722.71,364.86c-1.73-1.82-5.26-2.63-8.89-1.84c-3.99,0.87-6.76,3.4-6.77,5.94c2.61-0.53,5.25-0.94,7.85-1.5
				c0.15-0.03,0.3,0,0.44,0.08C717.57,366.03,720.24,365.71,722.71,364.86z"/>
		</g>
	</g>
	<polygon class="st0" points="665.12,347.3 670.53,354.29 669.14,355.09 663.73,348.1 	"/>
	<polygon class="st0" points="710.58,355.25 719.7,349.58 720.78,350.88 711.65,356.55 	"/>
	<polygon class="st0" points="697.46,354.8 703.11,361.06 701.7,361.98 696.05,355.71 	"/>
	<polygon class="st0" points="658.12,348.78 667.47,351.17 667,352.54 657.65,350.15 	"/>
	<polygon class="st0" points="674.88,365.54 664.56,368.04 664.24,366.67 674.56,364.17 	"/>
	<polygon class="st0" points="699.04,371.31 708.01,368.02 708.66,369.34 699.69,372.63 	"/>
	<polygon class="st0" points="705.77,356.57 699.37,346.59 700.73,345.89 707.14,355.87 	"/>
	<g>
		<path class="st0" d="M693.54,339.58c-0.62,1.78,0.11,4.22,1.99,6.07c2.07,2.03,4.84,2.66,6.61,1.62
			c-1.33-1.34-2.58-2.76-3.92-4.08c-0.08-0.08-0.11-0.18-0.11-0.3C696.25,342.17,695.04,340.71,693.54,339.58z"/>
		<path class="st0" d="M693.45,339.54c1.53,1.13,2.71,2.67,4.63,3.34c0.19,0.07,0.25,0.22,0.23,0.41c1.29,1.28,2.5,2.63,3.77,3.93
			c0.63-1.78-0.1-4.23-1.98-6.08C698.01,339.09,695.22,338.47,693.45,339.54z"/>
	</g>
	<g>
		<path class="st0" d="M648.9,365.88c1.58,1.69,5.27,3.17,9.33,3.58c4.47,0.45,7.89-0.55,8.31-2.29c-2.91-0.32-5.84-0.73-8.75-1.03
			c-0.17-0.02-0.33-0.08-0.47-0.17C654.66,366.42,651.72,365.95,648.9,365.88z"/>
		<path class="st0" d="M648.76,365.89c2.85,0.04,5.86,0.59,8.53,0.08c0.26-0.05,0.51,0.03,0.72,0.19c2.8,0.29,5.61,0.68,8.41,0.99
			c-1.57-1.7-5.28-3.18-9.34-3.59C652.57,363.11,649.14,364.13,648.76,365.89z"/>
	</g>
	<g>
		<path class="st0" d="M642.44,347.92c1.17,1.8,4.36,3.36,8.08,3.77c4.1,0.45,7.46-0.65,8.17-2.52c-2.66-0.32-5.33-0.74-7.99-1.04
			c-0.16-0.02-0.29-0.08-0.41-0.18C647.72,348.45,645.06,347.97,642.44,347.92z"/>
		<path class="st0" d="M642.31,347.93c2.65,0.03,5.37,0.59,7.95,0.02c0.25-0.05,0.47,0.03,0.64,0.2c2.56,0.29,5.12,0.69,7.68,1
			c-1.17-1.81-4.36-3.37-8.09-3.78C646.36,344.92,642.97,346.04,642.31,347.93z"/>
	</g>
	<g>
		<path class="st0" d="M715.34,360.07c2.71,0.45,6.53-0.36,9.5-2.17c3.28-1.99,4.42-4.52,2.94-6.05c-2.16,1.28-4.43,2.5-6.56,3.79
			c-0.13,0.08-0.29,0.11-0.47,0.12C719.53,357.47,717.19,358.65,715.34,360.07z"/>
		<path class="st0" d="M715.27,360.15c1.84-1.45,4.29-2.61,5.47-4.38c0.11-0.17,0.35-0.24,0.65-0.23c2.05-1.24,4.23-2.41,6.31-3.64
			c-2.71-0.46-6.54,0.36-9.52,2.17C714.87,356.07,713.73,358.62,715.27,360.15z"/>
	</g>
	<g>
		<path class="st0" d="M688.4,346.47c-0.47,2.03,0.78,5,3.29,7.39c2.77,2.64,6.16,3.69,8.1,2.67c-1.78-1.73-3.49-3.55-5.29-5.27
			c-0.11-0.1-0.16-0.23-0.18-0.36C692.01,349.84,690.35,347.98,688.4,346.47z"/>
		<path class="st0" d="M688.28,346.41c2,1.51,3.63,3.45,6.02,4.47c0.23,0.1,0.33,0.29,0.34,0.51c1.73,1.65,3.37,3.39,5.08,5.06
			c0.48-2.03-0.77-5.01-3.29-7.4C693.64,346.4,690.22,345.35,688.28,346.41z"/>
	</g>
	<g>
		<path class="st0" d="M654.13,338.55c-0.47,2.03,0.78,5,3.29,7.39c2.77,2.64,6.16,3.69,8.1,2.67c-1.78-1.73-3.49-3.55-5.29-5.27
			c-0.11-0.1-0.16-0.23-0.18-0.36C657.74,341.92,656.08,340.05,654.13,338.55z"/>
		<path class="st0" d="M654.02,338.49c2,1.51,3.63,3.45,6.02,4.47c0.23,0.1,0.33,0.29,0.34,0.51c1.73,1.65,3.37,3.39,5.08,5.06
			c0.48-2.03-0.77-5.01-3.29-7.4C659.37,338.47,655.95,337.42,654.02,338.49z"/>
	</g>
	<polygon class="st0" points="703.67,351.15 708.14,346.11 709.01,346.58 704.54,351.62 	"/>
	<polygon class="st0" points="672.96,356.23 676.84,348.53 678.37,349.1 674.49,356.81 	"/>
	<g>
		<path class="st0" d="M686.87,345.19c-1.74,1.11-3.78,1.75-5.2,3.36c-0.14,0.15-0.32,0.17-0.51,0.09
			c-1.81,0.83-3.67,1.56-5.49,2.37c1.63,1.12,4.47,1.16,7.1-0.06C685.67,349.6,687.34,347.16,686.87,345.19z"/>
		<g>
			<path class="st0" d="M687.07,345.6c-1.63-1.11-4.46-1.15-7.08,0.07c-2.89,1.34-4.56,3.75-4.12,5.72
				c1.89-0.85,3.83-1.61,5.71-2.47c0.11-0.05,0.23-0.05,0.35-0.02C683.36,347.36,685.33,346.67,687.07,345.6z"/>
		</g>
	</g>
	<g>
		<path class="st0" d="M716.66,335.52c-1.27,2.09-3.18,3.81-3.74,6.31c-0.05,0.24-0.26,0.35-0.52,0.35
			c-1.52,1.81-3.18,3.53-4.73,5.33c2.61,0.5,5.89-0.81,8.09-3.45C718.21,341.12,718.51,337.55,716.66,335.52z"/>
		<g>
			<path class="st0" d="M717.15,335.89c-2.61-0.49-5.88,0.82-8.08,3.46c-2.42,2.91-2.74,6.45-0.94,8.48
				c1.61-1.87,3.33-3.66,4.91-5.54c0.09-0.11,0.23-0.17,0.39-0.19C714.08,339.67,715.87,337.94,717.15,335.89z"/>
		</g>
	</g>
	<g>
		<path class="st0" d="M674.19,333.46c-0.67,2.29-2.07,4.34-1.95,6.88c0.01,0.25-0.16,0.39-0.42,0.45c-1,2.07-2.14,4.07-3.17,6.12
			c2.68-0.04,5.51-1.96,6.95-4.97C677.2,338.6,676.53,335.06,674.19,333.46z"/>
		<g>
			<path class="st0" d="M674.77,333.72c-2.67,0.04-5.5,1.97-6.93,4.97c-1.58,3.31-0.94,6.82,1.36,8.44c1.06-2.14,2.26-4.22,3.3-6.37
				c0.06-0.13,0.18-0.21,0.33-0.26C672.79,338.01,674.07,335.97,674.77,333.72z"/>
		</g>
	</g>
	
		<rect x="665.49" y="348.89" transform="matrix(-1.836970e-16 1 -1 -1.836970e-16 1019.4141 -319.9662)" class="st0" width="8.4" height="1.67"/>
	<polygon class="st0" points="705.59,363.24 714.36,358.2 715.26,359.28 706.48,364.32 	"/>
	<g>
		<path class="st0" d="M733.36,329.35c-1.78,1.71-4.1,2.9-5.29,5.17c-0.11,0.22-0.34,0.27-0.6,0.22c-1.96,1.38-4.03,2.64-6.01,4
			c2.43,1.09,5.99,0.6,8.83-1.42C733.43,335.07,734.65,331.72,733.36,329.35z"/>
		<g>
			<path class="st0" d="M733.75,329.82c-2.43-1.08-5.98-0.58-8.81,1.43c-3.13,2.22-4.35,5.54-3.11,7.91
				c2.06-1.42,4.21-2.73,6.25-4.16c0.12-0.09,0.27-0.11,0.43-0.09C729.76,332.72,731.97,331.48,733.75,329.82z"/>
		</g>
	</g>
	<g>
		<path class="st0" d="M697.94,318.81c-2.34,1.97-5.2,3.37-6.95,5.97c-0.17,0.25-0.44,0.31-0.73,0.25c-2.49,1.6-5.08,3.07-7.59,4.64
			c2.63,1.21,6.81,0.61,10.42-1.73C697.09,325.36,699.04,321.51,697.94,318.81z"/>
		<g>
			<path class="st0" d="M698.31,319.35c-2.63-1.2-6.8-0.59-10.4,1.74c-3.97,2.57-5.93,6.38-4.88,9.07c2.61-1.64,5.31-3.17,7.89-4.83
				c0.15-0.1,0.33-0.13,0.51-0.1C693.23,322.71,695.98,321.27,698.31,319.35z"/>
		</g>
	</g>
	<g>
		<path class="st0" d="M684.99,339.3c1.76,0.86,4.68,0.76,7.3-0.36c2.89-1.24,4.45-3.32,3.87-4.94c-1.89,0.79-3.85,1.5-5.73,2.31
			c-0.11,0.05-0.24,0.05-0.36,0.03C688.7,337.67,686.71,338.34,684.99,339.3z"/>
		<path class="st0" d="M684.92,339.36c1.73-1,3.79-1.62,5.14-3.02c0.13-0.13,0.32-0.15,0.52-0.1c1.81-0.77,3.69-1.46,5.51-2.21
			c-1.76-0.86-4.69-0.77-7.32,0.36C685.86,335.63,684.3,337.74,684.92,339.36z"/>
	</g>
	<g>
		<path class="st0" d="M666.34,321.94c-0.47,2.03,0.78,5,3.29,7.39c2.77,2.64,6.16,3.69,8.1,2.67c-1.78-1.73-3.49-3.55-5.29-5.27
			c-0.11-0.1-0.16-0.23-0.18-0.36C669.95,325.31,668.29,323.45,666.34,321.94z"/>
		<path class="st0" d="M666.22,321.88c2,1.51,3.63,3.45,6.02,4.47c0.23,0.1,0.33,0.29,0.34,0.51c1.73,1.65,3.37,3.39,5.08,5.06
			c0.48-2.03-0.77-5.01-3.29-7.4C671.58,321.86,668.16,320.81,666.22,321.88z"/>
	</g>
	<g>
		<path class="st0" d="M652.64,326.01c-0.47,2.03,0.78,5,3.29,7.39c2.77,2.64,6.16,3.69,8.1,2.67c-1.78-1.73-3.49-3.55-5.29-5.27
			c-0.11-0.1-0.16-0.23-0.18-0.36C656.25,329.38,654.59,327.51,652.64,326.01z"/>
		<path class="st0" d="M652.53,325.95c2,1.51,3.63,3.45,6.02,4.47c0.23,0.1,0.33,0.29,0.34,0.51c1.73,1.65,3.37,3.39,5.08,5.06
			c0.48-2.03-0.77-5.01-3.29-7.4C657.88,325.93,654.46,324.88,652.53,325.95z"/>
	</g>
	<polygon class="st0" points="696.87,362.36 700.41,369.42 698.76,370.07 695.22,363.01 	"/>
	<polygon class="st0" points="663.62,335.15 670.11,354.72 668.3,355.33 661.82,335.76 	"/>
	<polygon class="st0" points="685.21,329.43 672.54,354.79 670.21,354.53 682.88,329.17 	"/>
	<polygon class="st0" points="676.32,330.25 682,336.24 680.53,337.15 674.84,331.15 	"/>
	<polygon class="st0" points="676.61,343.74 687.28,337.09 688.34,338.27 677.66,344.92 	"/>
	<polygon class="st0" points="724.59,337.63 710.12,355.88 708.15,355.35 722.61,337.11 	"/>
	<g>
		<path class="st0" d="M706.43,322.27c-0.34,2.09,1.11,5,3.79,7.23c2.96,2.45,6.44,3.26,8.34,2.07c-1.91-1.62-3.74-3.32-5.67-4.92
			c-0.11-0.1-0.18-0.22-0.2-0.35C710.28,325.4,708.49,323.64,706.43,322.27z"/>
		<path class="st0" d="M706.31,322.21c2.11,1.37,3.88,3.22,6.35,4.06c0.24,0.08,0.35,0.26,0.37,0.49c1.85,1.54,3.62,3.17,5.45,4.74
			c0.35-2.09-1.1-5.01-3.79-7.25C711.7,321.78,708.19,320.99,706.31,322.21z"/>
	</g>
	<polygon class="st0" points="719.26,341.68 716.01,330.18 717.51,329.74 720.76,341.24 	"/>
	<polygon class="st0" points="710.49,334.63 716.32,347.16 714.72,347.78 708.9,335.25 	"/>
	<g>
		<path class="st0" d="M702.78,331.43c0.41,1.64,1.92,3.49,3.87,4.57c2.14,1.19,4.09,1.04,4.7-0.26c-1.39-0.79-2.77-1.67-4.16-2.45
			c-0.08-0.05-0.15-0.12-0.2-0.22C705.55,332.94,704.18,332.01,702.78,331.43z"/>
		<path class="st0" d="M702.71,331.42c1.42,0.57,2.81,1.56,4.26,1.66c0.14,0.01,0.25,0.12,0.32,0.28c1.34,0.75,2.66,1.59,4,2.35
			c-0.4-1.64-1.92-3.5-3.87-4.58C705.26,329.93,703.3,330.1,702.71,331.42z"/>
	</g>
</g>
</svg>
